solid OpenSCAD_Model
  facet normal -1 0 0
    outer loop
      vertex -47.5 -47.5 0
      vertex -47.5 47.5 2.5
      vertex -47.5 47.5 0
    endloop
  endfacet
  facet normal -1 -0 0
    outer loop
      vertex -47.5 47.5 2.5
      vertex -47.5 -47.5 0
      vertex -47.5 -47.5 2.5
    endloop
  endfacet
  facet normal 0 0 1
    outer loop
      vertex -7.41641 22.8254 2.5
      vertex -2 23.8904 2.5
      vertex -4.49715 23.5749 2.5
    endloop
  endfacet
  facet normal 0 0 1
    outer loop
      vertex -2 23.8904 2.5
      vertex -7.41641 22.8254 2.5
      vertex -2 -23.8904 2.5
    endloop
  endfacet
  facet normal -0 0 1
    outer loop
      vertex -7.41641 -22.8254 2.5
      vertex -2 -23.8904 2.5
      vertex -7.41641 22.8254 2.5
    endloop
  endfacet
  facet normal 0 0 1
    outer loop
      vertex -2 -23.8904 2.5
      vertex -7.41641 -22.8254 2.5
      vertex -4.49715 -23.5749 2.5
    endloop
  endfacet
  facet normal -0 0 1
    outer loop
      vertex -10.2187 21.7158 2.5
      vertex -7.41641 -22.8254 2.5
      vertex -7.41641 22.8254 2.5
    endloop
  endfacet
  facet normal 0 0 1
    outer loop
      vertex -10.2187 21.7158 2.5
      vertex -10.2187 -21.7158 2.5
      vertex -7.41641 -22.8254 2.5
    endloop
  endfacet
  facet normal -0 0 1
    outer loop
      vertex -12.8598 20.2639 2.5
      vertex -10.2187 -21.7158 2.5
      vertex -10.2187 21.7158 2.5
    endloop
  endfacet
  facet normal 0 0 1
    outer loop
      vertex -12.8598 20.2639 2.5
      vertex -12.8598 -20.2639 2.5
      vertex -10.2187 -21.7158 2.5
    endloop
  endfacet
  facet normal -0 0 1
    outer loop
      vertex -15.2982 18.4923 2.5
      vertex -12.8598 -20.2639 2.5
      vertex -12.8598 20.2639 2.5
    endloop
  endfacet
  facet normal 0 0 1
    outer loop
      vertex -15.2982 18.4923 2.5
      vertex -15.2982 -18.4923 2.5
      vertex -12.8598 -20.2639 2.5
    endloop
  endfacet
  facet normal -0 0 1
    outer loop
      vertex -17.4952 16.4291 2.5
      vertex -15.2982 -18.4923 2.5
      vertex -15.2982 18.4923 2.5
    endloop
  endfacet
  facet normal 0 0 1
    outer loop
      vertex -17.4952 16.4291 2.5
      vertex -17.4952 -16.4291 2.5
      vertex -15.2982 -18.4923 2.5
    endloop
  endfacet
  facet normal -0 0 1
    outer loop
      vertex -19.4164 14.1068 2.5
      vertex -17.4952 -16.4291 2.5
      vertex -17.4952 16.4291 2.5
    endloop
  endfacet
  facet normal 0 0 1
    outer loop
      vertex -19.4164 14.1068 2.5
      vertex -19.4164 -14.1068 2.5
      vertex -17.4952 -16.4291 2.5
    endloop
  endfacet
  facet normal -0 0 1
    outer loop
      vertex -21.0314 11.5621 2.5
      vertex -19.4164 -14.1068 2.5
      vertex -19.4164 14.1068 2.5
    endloop
  endfacet
  facet normal 0 0 1
    outer loop
      vertex -21.0314 11.5621 2.5
      vertex -21.0314 -11.5621 2.5
      vertex -19.4164 -14.1068 2.5
    endloop
  endfacet
  facet normal -0 0 1
    outer loop
      vertex -22.3146 8.83499 2.5
      vertex -21.0314 -11.5621 2.5
      vertex -21.0314 11.5621 2.5
    endloop
  endfacet
  facet normal 0 0 1
    outer loop
      vertex -22.3146 8.83499 2.5
      vertex -22.3146 -8.83499 2.5
      vertex -21.0314 -11.5621 2.5
    endloop
  endfacet
  facet normal 0 0 1
    outer loop
      vertex -23.8742 2 2.5
      vertex -22.3146 8.83499 2.5
      vertex -23.246 5.96856 2.5
    endloop
  endfacet
  facet normal 0 0 1
    outer loop
      vertex -22.3146 8.83499 2.5
      vertex -23.8742 2 2.5
      vertex -22.3146 -8.83499 2.5
    endloop
  endfacet
  facet normal 0 0 1
    outer loop
      vertex -23.8742 2 2.5
      vertex -23.246 5.96856 2.5
      vertex -23.8108 3.008 2.5
    endloop
  endfacet
  facet normal -0 0 1
    outer loop
      vertex -23.8742 -2 2.5
      vertex -22.3146 -8.83499 2.5
      vertex -23.8742 2 2.5
    endloop
  endfacet
  facet normal 0 0 1
    outer loop
      vertex -22.3146 -8.83499 2.5
      vertex -23.8742 -2 2.5
      vertex -23.246 -5.96856 2.5
    endloop
  endfacet
  facet normal 0 0 1
    outer loop
      vertex -23.246 -5.96856 2.5
      vertex -23.8742 -2 2.5
      vertex -23.8108 -3.008 2.5
    endloop
  endfacet
  facet normal -0 0 1
    outer loop
      vertex -27.8742 2 2.5
      vertex -23.8742 -2 2.5
      vertex -23.8742 2 2.5
    endloop
  endfacet
  facet normal 0 0 1
    outer loop
      vertex -23.8742 -2 2.5
      vertex -27.8742 2 2.5
      vertex -27.8742 -2 2.5
    endloop
  endfacet
  facet normal -0 0 1
    outer loop
      vertex 23.8742 2 2.5
      vertex 27.8742 -2 2.5
      vertex 27.8742 2 2.5
    endloop
  endfacet
  facet normal 0 0 1
    outer loop
      vertex 23.8742 2 2.5
      vertex 23.8742 -2 2.5
      vertex 27.8742 -2 2.5
    endloop
  endfacet
  facet normal 0 0 1
    outer loop
      vertex 23.246 5.96856 2.5
      vertex 23.8742 2 2.5
      vertex 23.8108 3.008 2.5
    endloop
  endfacet
  facet normal 0 0 1
    outer loop
      vertex 22.3146 8.83499 2.5
      vertex 23.8742 2 2.5
      vertex 23.246 5.96856 2.5
    endloop
  endfacet
  facet normal 0 0 1
    outer loop
      vertex 23.8742 2 2.5
      vertex 22.3146 8.83499 2.5
      vertex 23.8742 -2 2.5
    endloop
  endfacet
  facet normal 0 0 1
    outer loop
      vertex 23.8742 -2 2.5
      vertex 23.246 -5.96856 2.5
      vertex 23.8108 -3.008 2.5
    endloop
  endfacet
  facet normal 0 0 1
    outer loop
      vertex 22.3146 -8.83499 2.5
      vertex 23.8742 -2 2.5
      vertex 22.3146 8.83499 2.5
    endloop
  endfacet
  facet normal 0 0 1
    outer loop
      vertex 23.8742 -2 2.5
      vertex 22.3146 -8.83499 2.5
      vertex 23.246 -5.96856 2.5
    endloop
  endfacet
  facet normal 0 0 1
    outer loop
      vertex 21.0314 11.5621 2.5
      vertex 22.3146 -8.83499 2.5
      vertex 22.3146 8.83499 2.5
    endloop
  endfacet
  facet normal 0 0 1
    outer loop
      vertex 21.0314 11.5621 2.5
      vertex 21.0314 -11.5621 2.5
      vertex 22.3146 -8.83499 2.5
    endloop
  endfacet
  facet normal 0 0 1
    outer loop
      vertex 19.4164 14.1068 2.5
      vertex 21.0314 -11.5621 2.5
      vertex 21.0314 11.5621 2.5
    endloop
  endfacet
  facet normal 0 0 1
    outer loop
      vertex 19.4164 14.1068 2.5
      vertex 19.4164 -14.1068 2.5
      vertex 21.0314 -11.5621 2.5
    endloop
  endfacet
  facet normal 0 0 1
    outer loop
      vertex 17.4952 16.4291 2.5
      vertex 19.4164 -14.1068 2.5
      vertex 19.4164 14.1068 2.5
    endloop
  endfacet
  facet normal 0 0 1
    outer loop
      vertex 17.4952 16.4291 2.5
      vertex 17.4952 -16.4291 2.5
      vertex 19.4164 -14.1068 2.5
    endloop
  endfacet
  facet normal 0 0 1
    outer loop
      vertex 15.2982 18.4923 2.5
      vertex 17.4952 -16.4291 2.5
      vertex 17.4952 16.4291 2.5
    endloop
  endfacet
  facet normal 0 0 1
    outer loop
      vertex 15.2982 18.4923 2.5
      vertex 15.2982 -18.4923 2.5
      vertex 17.4952 -16.4291 2.5
    endloop
  endfacet
  facet normal 0 0 1
    outer loop
      vertex 12.8598 20.2639 2.5
      vertex 15.2982 -18.4923 2.5
      vertex 15.2982 18.4923 2.5
    endloop
  endfacet
  facet normal 0 0 1
    outer loop
      vertex 12.8598 20.2639 2.5
      vertex 12.8598 -20.2639 2.5
      vertex 15.2982 -18.4923 2.5
    endloop
  endfacet
  facet normal 0 0 1
    outer loop
      vertex 10.2187 21.7158 2.5
      vertex 12.8598 -20.2639 2.5
      vertex 12.8598 20.2639 2.5
    endloop
  endfacet
  facet normal 0 0 1
    outer loop
      vertex 10.2187 21.7158 2.5
      vertex 10.2187 -21.7158 2.5
      vertex 12.8598 -20.2639 2.5
    endloop
  endfacet
  facet normal 0 0 1
    outer loop
      vertex 7.41641 22.8254 2.5
      vertex 10.2187 -21.7158 2.5
      vertex 10.2187 21.7158 2.5
    endloop
  endfacet
  facet normal 0 0 1
    outer loop
      vertex 7.41641 22.8254 2.5
      vertex 7.41641 -22.8254 2.5
      vertex 10.2187 -21.7158 2.5
    endloop
  endfacet
  facet normal 0 0 1
    outer loop
      vertex 2 23.8904 2.5
      vertex 7.41641 22.8254 2.5
      vertex 4.49715 23.5749 2.5
    endloop
  endfacet
  facet normal 0 0 1
    outer loop
      vertex 7.41641 22.8254 2.5
      vertex 2 23.8904 2.5
      vertex 7.41641 -22.8254 2.5
    endloop
  endfacet
  facet normal 0 0 1
    outer loop
      vertex 2 -23.8904 2.5
      vertex 7.41641 -22.8254 2.5
      vertex 2 23.8904 2.5
    endloop
  endfacet
  facet normal 0 0 1
    outer loop
      vertex 7.41641 -22.8254 2.5
      vertex 2 -23.8904 2.5
      vertex 4.49715 -23.5749 2.5
    endloop
  endfacet
  facet normal 0 0 1
    outer loop
      vertex 47.5 47.5 2.5
      vertex 27.8742 2 2.5
      vertex 47.5 -47.5 2.5
    endloop
  endfacet
  facet normal 0 0 1
    outer loop
      vertex 47.5 47.5 2.5
      vertex 27.7792 3.50933 2.5
      vertex 27.8742 2 2.5
    endloop
  endfacet
  facet normal 0 0 1
    outer loop
      vertex 47.5 47.5 2.5
      vertex 27.1203 6.96332 2.5
      vertex 27.7792 3.50933 2.5
    endloop
  endfacet
  facet normal 0 0 1
    outer loop
      vertex 47.5 47.5 2.5
      vertex 26.0337 10.3075 2.5
      vertex 27.1203 6.96332 2.5
    endloop
  endfacet
  facet normal 0 0 1
    outer loop
      vertex 47.5 47.5 2.5
      vertex 24.5366 13.4891 2.5
      vertex 26.0337 10.3075 2.5
    endloop
  endfacet
  facet normal 0 0 1
    outer loop
      vertex 47.5 47.5 2.5
      vertex 22.6525 16.458 2.5
      vertex 24.5366 13.4891 2.5
    endloop
  endfacet
  facet normal 0 0 1
    outer loop
      vertex 47.5 47.5 2.5
      vertex 20.4111 19.1673 2.5
      vertex 22.6525 16.458 2.5
    endloop
  endfacet
  facet normal 0 0 1
    outer loop
      vertex 47.5 47.5 2.5
      vertex 17.8479 21.5744 2.5
      vertex 20.4111 19.1673 2.5
    endloop
  endfacet
  facet normal 0 0 1
    outer loop
      vertex 47.5 47.5 2.5
      vertex 15.0031 23.6412 2.5
      vertex 17.8479 21.5744 2.5
    endloop
  endfacet
  facet normal 0 0 1
    outer loop
      vertex 47.5 47.5 2.5
      vertex 11.9218 25.3352 2.5
      vertex 15.0031 23.6412 2.5
    endloop
  endfacet
  facet normal 0 0 1
    outer loop
      vertex 47.5 47.5 2.5
      vertex 8.65248 26.6296 2.5
      vertex 11.9218 25.3352 2.5
    endloop
  endfacet
  facet normal 0 0 1
    outer loop
      vertex 47.5 47.5 2.5
      vertex 5.24668 27.504 2.5
      vertex 8.65248 26.6296 2.5
    endloop
  endfacet
  facet normal 0 0 1
    outer loop
      vertex 47.5 47.5 2.5
      vertex 2 27.9142 2.5
      vertex 5.24668 27.504 2.5
    endloop
  endfacet
  facet normal 0 0 1
    outer loop
      vertex -2 23.8904 2.5
      vertex 2 23.8904 2.5
      vertex 2 27.9142 2.5
    endloop
  endfacet
  facet normal 0 0 1
    outer loop
      vertex 2 23.8904 2.5
      vertex -2 23.8904 2.5
      vertex 2 -23.8904 2.5
    endloop
  endfacet
  facet normal 0 0 1
    outer loop
      vertex -2 23.8904 2.5
      vertex 2 27.9142 2.5
      vertex -2 27.9142 2.5
    endloop
  endfacet
  facet normal 0 0 1
    outer loop
      vertex 47.5 47.5 2.5
      vertex -2 27.9142 2.5
      vertex 2 27.9142 2.5
    endloop
  endfacet
  facet normal -0 0 1
    outer loop
      vertex -47.5 47.5 2.5
      vertex -2 27.9142 2.5
      vertex 47.5 47.5 2.5
    endloop
  endfacet
  facet normal 0 0 1
    outer loop
      vertex -2 27.9142 2.5
      vertex -47.5 47.5 2.5
      vertex -5.24668 27.504 2.5
    endloop
  endfacet
  facet normal 0 0 1
    outer loop
      vertex -27.8742 2 2.5
      vertex -47.5 47.5 2.5
      vertex -27.8742 -2 2.5
    endloop
  endfacet
  facet normal 0 0 1
    outer loop
      vertex -27.7792 3.50933 2.5
      vertex -47.5 47.5 2.5
      vertex -27.8742 2 2.5
    endloop
  endfacet
  facet normal 0 0 1
    outer loop
      vertex -27.1203 6.96332 2.5
      vertex -47.5 47.5 2.5
      vertex -27.7792 3.50933 2.5
    endloop
  endfacet
  facet normal 0 0 1
    outer loop
      vertex -26.0337 10.3075 2.5
      vertex -47.5 47.5 2.5
      vertex -27.1203 6.96332 2.5
    endloop
  endfacet
  facet normal 0 0 1
    outer loop
      vertex -24.5366 13.4891 2.5
      vertex -47.5 47.5 2.5
      vertex -26.0337 10.3075 2.5
    endloop
  endfacet
  facet normal 0 0 1
    outer loop
      vertex -22.6525 16.458 2.5
      vertex -47.5 47.5 2.5
      vertex -24.5366 13.4891 2.5
    endloop
  endfacet
  facet normal 0 0 1
    outer loop
      vertex -20.4111 19.1673 2.5
      vertex -47.5 47.5 2.5
      vertex -22.6525 16.458 2.5
    endloop
  endfacet
  facet normal 0 0 1
    outer loop
      vertex -17.8479 21.5744 2.5
      vertex -47.5 47.5 2.5
      vertex -20.4111 19.1673 2.5
    endloop
  endfacet
  facet normal 0 0 1
    outer loop
      vertex -15.0031 23.6412 2.5
      vertex -47.5 47.5 2.5
      vertex -17.8479 21.5744 2.5
    endloop
  endfacet
  facet normal 0 0 1
    outer loop
      vertex -11.9218 25.3352 2.5
      vertex -47.5 47.5 2.5
      vertex -15.0031 23.6412 2.5
    endloop
  endfacet
  facet normal 0 0 1
    outer loop
      vertex -8.65248 26.6296 2.5
      vertex -47.5 47.5 2.5
      vertex -11.9218 25.3352 2.5
    endloop
  endfacet
  facet normal 0 0 1
    outer loop
      vertex -5.24668 27.504 2.5
      vertex -47.5 47.5 2.5
      vertex -8.65248 26.6296 2.5
    endloop
  endfacet
  facet normal -0 0 1
    outer loop
      vertex 27.8742 -2 2.5
      vertex 47.5 -47.5 2.5
      vertex 27.8742 2 2.5
    endloop
  endfacet
  facet normal -0 0 1
    outer loop
      vertex 27.7792 -3.50933 2.5
      vertex 47.5 -47.5 2.5
      vertex 27.8742 -2 2.5
    endloop
  endfacet
  facet normal -0 0 1
    outer loop
      vertex 27.1203 -6.96332 2.5
      vertex 47.5 -47.5 2.5
      vertex 27.7792 -3.50933 2.5
    endloop
  endfacet
  facet normal -0 0 1
    outer loop
      vertex 26.0337 -10.3075 2.5
      vertex 47.5 -47.5 2.5
      vertex 27.1203 -6.96332 2.5
    endloop
  endfacet
  facet normal -0 0 1
    outer loop
      vertex 24.5366 -13.4891 2.5
      vertex 47.5 -47.5 2.5
      vertex 26.0337 -10.3075 2.5
    endloop
  endfacet
  facet normal -0 0 1
    outer loop
      vertex 22.6525 -16.458 2.5
      vertex 47.5 -47.5 2.5
      vertex 24.5366 -13.4891 2.5
    endloop
  endfacet
  facet normal -0 0 1
    outer loop
      vertex 20.4111 -19.1673 2.5
      vertex 47.5 -47.5 2.5
      vertex 22.6525 -16.458 2.5
    endloop
  endfacet
  facet normal -0 0 1
    outer loop
      vertex 17.8479 -21.5744 2.5
      vertex 47.5 -47.5 2.5
      vertex 20.4111 -19.1673 2.5
    endloop
  endfacet
  facet normal -0 0 1
    outer loop
      vertex 15.0031 -23.6412 2.5
      vertex 47.5 -47.5 2.5
      vertex 17.8479 -21.5744 2.5
    endloop
  endfacet
  facet normal -0 0 1
    outer loop
      vertex 11.9218 -25.3352 2.5
      vertex 47.5 -47.5 2.5
      vertex 15.0031 -23.6412 2.5
    endloop
  endfacet
  facet normal -0 0 1
    outer loop
      vertex 8.65248 -26.6296 2.5
      vertex 47.5 -47.5 2.5
      vertex 11.9218 -25.3352 2.5
    endloop
  endfacet
  facet normal -0 0 1
    outer loop
      vertex 5.24668 -27.504 2.5
      vertex 47.5 -47.5 2.5
      vertex 8.65248 -26.6296 2.5
    endloop
  endfacet
  facet normal -0 0 1
    outer loop
      vertex 2 -27.9142 2.5
      vertex 47.5 -47.5 2.5
      vertex 5.24668 -27.504 2.5
    endloop
  endfacet
  facet normal 0 0 1
    outer loop
      vertex -2 -23.8904 2.5
      vertex 2 -23.8904 2.5
      vertex -2 23.8904 2.5
    endloop
  endfacet
  facet normal 0 0 1
    outer loop
      vertex 2 -23.8904 2.5
      vertex -2 -23.8904 2.5
      vertex 2 -27.9142 2.5
    endloop
  endfacet
  facet normal 0 0 1
    outer loop
      vertex -2 -27.9142 2.5
      vertex 2 -27.9142 2.5
      vertex -2 -23.8904 2.5
    endloop
  endfacet
  facet normal -0 0 1
    outer loop
      vertex -2 -27.9142 2.5
      vertex 47.5 -47.5 2.5
      vertex 2 -27.9142 2.5
    endloop
  endfacet
  facet normal 0 0 1
    outer loop
      vertex -47.5 -47.5 2.5
      vertex -2 -27.9142 2.5
      vertex -5.24668 -27.504 2.5
    endloop
  endfacet
  facet normal 0 0 1
    outer loop
      vertex -47.5 -47.5 2.5
      vertex -5.24668 -27.504 2.5
      vertex -8.65248 -26.6296 2.5
    endloop
  endfacet
  facet normal 0 0 1
    outer loop
      vertex -47.5 -47.5 2.5
      vertex -27.8742 -2 2.5
      vertex -47.5 47.5 2.5
    endloop
  endfacet
  facet normal 0 0 1
    outer loop
      vertex -27.8742 -2 2.5
      vertex -47.5 -47.5 2.5
      vertex -27.7792 -3.50933 2.5
    endloop
  endfacet
  facet normal 0 0 1
    outer loop
      vertex -27.7792 -3.50933 2.5
      vertex -47.5 -47.5 2.5
      vertex -27.1203 -6.96332 2.5
    endloop
  endfacet
  facet normal 0 0 1
    outer loop
      vertex -2 -27.9142 2.5
      vertex -47.5 -47.5 2.5
      vertex 47.5 -47.5 2.5
    endloop
  endfacet
  facet normal 0 0 1
    outer loop
      vertex -11.9218 -25.3352 2.5
      vertex -47.5 -47.5 2.5
      vertex -8.65248 -26.6296 2.5
    endloop
  endfacet
  facet normal 0 0 1
    outer loop
      vertex -15.0031 -23.6412 2.5
      vertex -47.5 -47.5 2.5
      vertex -11.9218 -25.3352 2.5
    endloop
  endfacet
  facet normal 0 0 1
    outer loop
      vertex -17.8479 -21.5744 2.5
      vertex -47.5 -47.5 2.5
      vertex -15.0031 -23.6412 2.5
    endloop
  endfacet
  facet normal 0 0 1
    outer loop
      vertex -20.4111 -19.1673 2.5
      vertex -47.5 -47.5 2.5
      vertex -17.8479 -21.5744 2.5
    endloop
  endfacet
  facet normal 0 0 1
    outer loop
      vertex -22.6525 -16.458 2.5
      vertex -47.5 -47.5 2.5
      vertex -20.4111 -19.1673 2.5
    endloop
  endfacet
  facet normal 0 0 1
    outer loop
      vertex -24.5366 -13.4891 2.5
      vertex -47.5 -47.5 2.5
      vertex -22.6525 -16.458 2.5
    endloop
  endfacet
  facet normal 0 0 1
    outer loop
      vertex -26.0337 -10.3075 2.5
      vertex -47.5 -47.5 2.5
      vertex -24.5366 -13.4891 2.5
    endloop
  endfacet
  facet normal 0 0 1
    outer loop
      vertex -27.1203 -6.96332 2.5
      vertex -47.5 -47.5 2.5
      vertex -26.0337 -10.3075 2.5
    endloop
  endfacet
  facet normal 1 -0 0
    outer loop
      vertex 47.5 -47.5 2.5
      vertex 47.5 47.5 0
      vertex 47.5 47.5 2.5
    endloop
  endfacet
  facet normal 1 0 0
    outer loop
      vertex 47.5 47.5 0
      vertex 47.5 -47.5 2.5
      vertex 47.5 -47.5 0
    endloop
  endfacet
  facet normal 0 0 -1
    outer loop
      vertex -7.41641 -22.8254 0
      vertex -2 -23.8904 0
      vertex -4.49715 -23.5749 0
    endloop
  endfacet
  facet normal 0 0 -1
    outer loop
      vertex -2 -23.8904 0
      vertex -7.41641 -22.8254 0
      vertex -2 23.8904 0
    endloop
  endfacet
  facet normal 0 0 -1
    outer loop
      vertex -7.41641 22.8254 0
      vertex -2 23.8904 0
      vertex -7.41641 -22.8254 0
    endloop
  endfacet
  facet normal 0 0 -1
    outer loop
      vertex -2 23.8904 0
      vertex -7.41641 22.8254 0
      vertex -4.49715 23.5749 0
    endloop
  endfacet
  facet normal 0 0 -1
    outer loop
      vertex -10.2187 -21.7158 0
      vertex -7.41641 22.8254 0
      vertex -7.41641 -22.8254 0
    endloop
  endfacet
  facet normal 0 0 -1
    outer loop
      vertex -10.2187 -21.7158 0
      vertex -10.2187 21.7158 0
      vertex -7.41641 22.8254 0
    endloop
  endfacet
  facet normal 0 0 -1
    outer loop
      vertex -12.8598 -20.2639 0
      vertex -10.2187 21.7158 0
      vertex -10.2187 -21.7158 0
    endloop
  endfacet
  facet normal 0 0 -1
    outer loop
      vertex -12.8598 -20.2639 0
      vertex -12.8598 20.2639 0
      vertex -10.2187 21.7158 0
    endloop
  endfacet
  facet normal 0 0 -1
    outer loop
      vertex -15.2982 -18.4923 0
      vertex -12.8598 20.2639 0
      vertex -12.8598 -20.2639 0
    endloop
  endfacet
  facet normal 0 0 -1
    outer loop
      vertex -15.2982 -18.4923 0
      vertex -15.2982 18.4923 0
      vertex -12.8598 20.2639 0
    endloop
  endfacet
  facet normal 0 0 -1
    outer loop
      vertex -17.4952 -16.4291 0
      vertex -15.2982 18.4923 0
      vertex -15.2982 -18.4923 0
    endloop
  endfacet
  facet normal 0 0 -1
    outer loop
      vertex -17.4952 -16.4291 0
      vertex -17.4952 16.4291 0
      vertex -15.2982 18.4923 0
    endloop
  endfacet
  facet normal 0 0 -1
    outer loop
      vertex -19.4164 -14.1068 0
      vertex -17.4952 16.4291 0
      vertex -17.4952 -16.4291 0
    endloop
  endfacet
  facet normal 0 0 -1
    outer loop
      vertex -19.4164 -14.1068 0
      vertex -19.4164 14.1068 0
      vertex -17.4952 16.4291 0
    endloop
  endfacet
  facet normal 0 0 -1
    outer loop
      vertex -21.0314 -11.5621 0
      vertex -19.4164 14.1068 0
      vertex -19.4164 -14.1068 0
    endloop
  endfacet
  facet normal 0 0 -1
    outer loop
      vertex -21.0314 -11.5621 0
      vertex -21.0314 11.5621 0
      vertex -19.4164 14.1068 0
    endloop
  endfacet
  facet normal 0 0 -1
    outer loop
      vertex -22.3146 -8.83499 0
      vertex -21.0314 11.5621 0
      vertex -21.0314 -11.5621 0
    endloop
  endfacet
  facet normal 0 0 -1
    outer loop
      vertex -22.3146 -8.83499 0
      vertex -22.3146 8.83499 0
      vertex -21.0314 11.5621 0
    endloop
  endfacet
  facet normal 0 0 -1
    outer loop
      vertex -23.8742 -2 0
      vertex -22.3146 -8.83499 0
      vertex -23.246 -5.96856 0
    endloop
  endfacet
  facet normal 0 0 -1
    outer loop
      vertex -22.3146 -8.83499 0
      vertex -23.8742 -2 0
      vertex -22.3146 8.83499 0
    endloop
  endfacet
  facet normal 0 0 -1
    outer loop
      vertex -23.8742 -2 0
      vertex -23.246 -5.96856 0
      vertex -23.8108 -3.008 0
    endloop
  endfacet
  facet normal 0 0 -1
    outer loop
      vertex -23.8742 2 0
      vertex -22.3146 8.83499 0
      vertex -23.8742 -2 0
    endloop
  endfacet
  facet normal 0 0 -1
    outer loop
      vertex -22.3146 8.83499 0
      vertex -23.8742 2 0
      vertex -23.246 5.96856 0
    endloop
  endfacet
  facet normal 0 0 -1
    outer loop
      vertex -23.246 5.96856 0
      vertex -23.8742 2 0
      vertex -23.8108 3.008 0
    endloop
  endfacet
  facet normal 0 0 -1
    outer loop
      vertex -27.8742 -2 0
      vertex -23.8742 2 0
      vertex -23.8742 -2 0
    endloop
  endfacet
  facet normal -0 0 -1
    outer loop
      vertex -23.8742 2 0
      vertex -27.8742 -2 0
      vertex -27.8742 2 0
    endloop
  endfacet
  facet normal 0 0 -1
    outer loop
      vertex 23.8742 -2 0
      vertex 27.8742 2 0
      vertex 27.8742 -2 0
    endloop
  endfacet
  facet normal 0 0 -1
    outer loop
      vertex 23.8742 -2 0
      vertex 23.8742 2 0
      vertex 27.8742 2 0
    endloop
  endfacet
  facet normal 0 0 -1
    outer loop
      vertex 23.246 -5.96856 0
      vertex 23.8742 -2 0
      vertex 23.8108 -3.008 0
    endloop
  endfacet
  facet normal 0 0 -1
    outer loop
      vertex 22.3146 -8.83499 0
      vertex 23.8742 -2 0
      vertex 23.246 -5.96856 0
    endloop
  endfacet
  facet normal -0 0 -1
    outer loop
      vertex 23.8742 -2 0
      vertex 22.3146 -8.83499 0
      vertex 23.8742 2 0
    endloop
  endfacet
  facet normal 0 0 -1
    outer loop
      vertex 23.8742 2 0
      vertex 23.246 5.96856 0
      vertex 23.8108 3.008 0
    endloop
  endfacet
  facet normal 0 0 -1
    outer loop
      vertex 22.3146 8.83499 0
      vertex 23.8742 2 0
      vertex 22.3146 -8.83499 0
    endloop
  endfacet
  facet normal 0 0 -1
    outer loop
      vertex 23.8742 2 0
      vertex 22.3146 8.83499 0
      vertex 23.246 5.96856 0
    endloop
  endfacet
  facet normal 0 0 -1
    outer loop
      vertex 21.0314 -11.5621 0
      vertex 22.3146 8.83499 0
      vertex 22.3146 -8.83499 0
    endloop
  endfacet
  facet normal 0 0 -1
    outer loop
      vertex 21.0314 -11.5621 0
      vertex 21.0314 11.5621 0
      vertex 22.3146 8.83499 0
    endloop
  endfacet
  facet normal 0 0 -1
    outer loop
      vertex 19.4164 -14.1068 0
      vertex 21.0314 11.5621 0
      vertex 21.0314 -11.5621 0
    endloop
  endfacet
  facet normal 0 0 -1
    outer loop
      vertex 19.4164 -14.1068 0
      vertex 19.4164 14.1068 0
      vertex 21.0314 11.5621 0
    endloop
  endfacet
  facet normal 0 0 -1
    outer loop
      vertex 17.4952 -16.4291 0
      vertex 19.4164 14.1068 0
      vertex 19.4164 -14.1068 0
    endloop
  endfacet
  facet normal 0 0 -1
    outer loop
      vertex 17.4952 -16.4291 0
      vertex 17.4952 16.4291 0
      vertex 19.4164 14.1068 0
    endloop
  endfacet
  facet normal 0 0 -1
    outer loop
      vertex 15.2982 -18.4923 0
      vertex 17.4952 16.4291 0
      vertex 17.4952 -16.4291 0
    endloop
  endfacet
  facet normal 0 0 -1
    outer loop
      vertex 15.2982 -18.4923 0
      vertex 15.2982 18.4923 0
      vertex 17.4952 16.4291 0
    endloop
  endfacet
  facet normal 0 0 -1
    outer loop
      vertex 12.8598 -20.2639 0
      vertex 15.2982 18.4923 0
      vertex 15.2982 -18.4923 0
    endloop
  endfacet
  facet normal 0 0 -1
    outer loop
      vertex 12.8598 -20.2639 0
      vertex 12.8598 20.2639 0
      vertex 15.2982 18.4923 0
    endloop
  endfacet
  facet normal 0 0 -1
    outer loop
      vertex 10.2187 -21.7158 0
      vertex 12.8598 20.2639 0
      vertex 12.8598 -20.2639 0
    endloop
  endfacet
  facet normal 0 0 -1
    outer loop
      vertex 10.2187 -21.7158 0
      vertex 10.2187 21.7158 0
      vertex 12.8598 20.2639 0
    endloop
  endfacet
  facet normal 0 0 -1
    outer loop
      vertex 7.41641 -22.8254 0
      vertex 10.2187 21.7158 0
      vertex 10.2187 -21.7158 0
    endloop
  endfacet
  facet normal 0 0 -1
    outer loop
      vertex 7.41641 -22.8254 0
      vertex 7.41641 22.8254 0
      vertex 10.2187 21.7158 0
    endloop
  endfacet
  facet normal 0 0 -1
    outer loop
      vertex 2 -23.8904 0
      vertex 7.41641 -22.8254 0
      vertex 4.49715 -23.5749 0
    endloop
  endfacet
  facet normal -0 0 -1
    outer loop
      vertex 7.41641 -22.8254 0
      vertex 2 -23.8904 0
      vertex 7.41641 22.8254 0
    endloop
  endfacet
  facet normal 0 0 -1
    outer loop
      vertex 2 23.8904 0
      vertex 7.41641 22.8254 0
      vertex 2 -23.8904 0
    endloop
  endfacet
  facet normal 0 0 -1
    outer loop
      vertex 7.41641 22.8254 0
      vertex 2 23.8904 0
      vertex 4.49715 23.5749 0
    endloop
  endfacet
  facet normal 0 0 -1
    outer loop
      vertex 47.5 -47.5 0
      vertex 27.8742 -2 0
      vertex 47.5 47.5 0
    endloop
  endfacet
  facet normal 0 0 -1
    outer loop
      vertex 47.5 -47.5 0
      vertex 27.7792 -3.50933 0
      vertex 27.8742 -2 0
    endloop
  endfacet
  facet normal 0 0 -1
    outer loop
      vertex 47.5 -47.5 0
      vertex 27.1203 -6.96332 0
      vertex 27.7792 -3.50933 0
    endloop
  endfacet
  facet normal 0 0 -1
    outer loop
      vertex 47.5 -47.5 0
      vertex 26.0337 -10.3075 0
      vertex 27.1203 -6.96332 0
    endloop
  endfacet
  facet normal 0 0 -1
    outer loop
      vertex 47.5 -47.5 0
      vertex 24.5366 -13.4891 0
      vertex 26.0337 -10.3075 0
    endloop
  endfacet
  facet normal 0 0 -1
    outer loop
      vertex 47.5 -47.5 0
      vertex 22.6525 -16.458 0
      vertex 24.5366 -13.4891 0
    endloop
  endfacet
  facet normal 0 0 -1
    outer loop
      vertex 47.5 -47.5 0
      vertex 20.4111 -19.1673 0
      vertex 22.6525 -16.458 0
    endloop
  endfacet
  facet normal 0 0 -1
    outer loop
      vertex 47.5 -47.5 0
      vertex 17.8479 -21.5744 0
      vertex 20.4111 -19.1673 0
    endloop
  endfacet
  facet normal 0 0 -1
    outer loop
      vertex 47.5 -47.5 0
      vertex 15.0031 -23.6412 0
      vertex 17.8479 -21.5744 0
    endloop
  endfacet
  facet normal 0 0 -1
    outer loop
      vertex 47.5 -47.5 0
      vertex 11.9218 -25.3352 0
      vertex 15.0031 -23.6412 0
    endloop
  endfacet
  facet normal 0 0 -1
    outer loop
      vertex 47.5 -47.5 0
      vertex 8.65248 -26.6296 0
      vertex 11.9218 -25.3352 0
    endloop
  endfacet
  facet normal 0 0 -1
    outer loop
      vertex 47.5 -47.5 0
      vertex 5.24668 -27.504 0
      vertex 8.65248 -26.6296 0
    endloop
  endfacet
  facet normal 0 0 -1
    outer loop
      vertex 47.5 -47.5 0
      vertex 2 -27.9142 0
      vertex 5.24668 -27.504 0
    endloop
  endfacet
  facet normal 0 0 -1
    outer loop
      vertex -2 -23.8904 0
      vertex 2 -23.8904 0
      vertex 2 -27.9142 0
    endloop
  endfacet
  facet normal 0 0 -1
    outer loop
      vertex 2 -23.8904 0
      vertex -2 -23.8904 0
      vertex 2 23.8904 0
    endloop
  endfacet
  facet normal 0 0 -1
    outer loop
      vertex -2 -23.8904 0
      vertex 2 -27.9142 0
      vertex -2 -27.9142 0
    endloop
  endfacet
  facet normal 0 0 -1
    outer loop
      vertex 47.5 -47.5 0
      vertex -2 -27.9142 0
      vertex 2 -27.9142 0
    endloop
  endfacet
  facet normal 0 0 -1
    outer loop
      vertex -47.5 -47.5 0
      vertex -2 -27.9142 0
      vertex 47.5 -47.5 0
    endloop
  endfacet
  facet normal -0 0 -1
    outer loop
      vertex -2 -27.9142 0
      vertex -47.5 -47.5 0
      vertex -5.24668 -27.504 0
    endloop
  endfacet
  facet normal -0 0 -1
    outer loop
      vertex -27.8742 -2 0
      vertex -47.5 -47.5 0
      vertex -27.8742 2 0
    endloop
  endfacet
  facet normal -0 0 -1
    outer loop
      vertex -27.7792 -3.50933 0
      vertex -47.5 -47.5 0
      vertex -27.8742 -2 0
    endloop
  endfacet
  facet normal -0 0 -1
    outer loop
      vertex -27.1203 -6.96332 0
      vertex -47.5 -47.5 0
      vertex -27.7792 -3.50933 0
    endloop
  endfacet
  facet normal -0 0 -1
    outer loop
      vertex -26.0337 -10.3075 0
      vertex -47.5 -47.5 0
      vertex -27.1203 -6.96332 0
    endloop
  endfacet
  facet normal -0 0 -1
    outer loop
      vertex -24.5366 -13.4891 0
      vertex -47.5 -47.5 0
      vertex -26.0337 -10.3075 0
    endloop
  endfacet
  facet normal -0 0 -1
    outer loop
      vertex -22.6525 -16.458 0
      vertex -47.5 -47.5 0
      vertex -24.5366 -13.4891 0
    endloop
  endfacet
  facet normal -0 0 -1
    outer loop
      vertex -20.4111 -19.1673 0
      vertex -47.5 -47.5 0
      vertex -22.6525 -16.458 0
    endloop
  endfacet
  facet normal -0 0 -1
    outer loop
      vertex -17.8479 -21.5744 0
      vertex -47.5 -47.5 0
      vertex -20.4111 -19.1673 0
    endloop
  endfacet
  facet normal -0 0 -1
    outer loop
      vertex -15.0031 -23.6412 0
      vertex -47.5 -47.5 0
      vertex -17.8479 -21.5744 0
    endloop
  endfacet
  facet normal -0 0 -1
    outer loop
      vertex -11.9218 -25.3352 0
      vertex -47.5 -47.5 0
      vertex -15.0031 -23.6412 0
    endloop
  endfacet
  facet normal -0 0 -1
    outer loop
      vertex -8.65248 -26.6296 0
      vertex -47.5 -47.5 0
      vertex -11.9218 -25.3352 0
    endloop
  endfacet
  facet normal -0 0 -1
    outer loop
      vertex -5.24668 -27.504 0
      vertex -47.5 -47.5 0
      vertex -8.65248 -26.6296 0
    endloop
  endfacet
  facet normal 0 0 -1
    outer loop
      vertex 27.8742 2 0
      vertex 47.5 47.5 0
      vertex 27.8742 -2 0
    endloop
  endfacet
  facet normal 0 0 -1
    outer loop
      vertex 27.7792 3.50933 0
      vertex 47.5 47.5 0
      vertex 27.8742 2 0
    endloop
  endfacet
  facet normal 0 0 -1
    outer loop
      vertex 27.1203 6.96332 0
      vertex 47.5 47.5 0
      vertex 27.7792 3.50933 0
    endloop
  endfacet
  facet normal 0 0 -1
    outer loop
      vertex 26.0337 10.3075 0
      vertex 47.5 47.5 0
      vertex 27.1203 6.96332 0
    endloop
  endfacet
  facet normal 0 0 -1
    outer loop
      vertex 24.5366 13.4891 0
      vertex 47.5 47.5 0
      vertex 26.0337 10.3075 0
    endloop
  endfacet
  facet normal 0 0 -1
    outer loop
      vertex 22.6525 16.458 0
      vertex 47.5 47.5 0
      vertex 24.5366 13.4891 0
    endloop
  endfacet
  facet normal 0 0 -1
    outer loop
      vertex 20.4111 19.1673 0
      vertex 47.5 47.5 0
      vertex 22.6525 16.458 0
    endloop
  endfacet
  facet normal 0 0 -1
    outer loop
      vertex 17.8479 21.5744 0
      vertex 47.5 47.5 0
      vertex 20.4111 19.1673 0
    endloop
  endfacet
  facet normal 0 0 -1
    outer loop
      vertex 15.0031 23.6412 0
      vertex 47.5 47.5 0
      vertex 17.8479 21.5744 0
    endloop
  endfacet
  facet normal 0 0 -1
    outer loop
      vertex 11.9218 25.3352 0
      vertex 47.5 47.5 0
      vertex 15.0031 23.6412 0
    endloop
  endfacet
  facet normal 0 0 -1
    outer loop
      vertex 8.65248 26.6296 0
      vertex 47.5 47.5 0
      vertex 11.9218 25.3352 0
    endloop
  endfacet
  facet normal 0 0 -1
    outer loop
      vertex 5.24668 27.504 0
      vertex 47.5 47.5 0
      vertex 8.65248 26.6296 0
    endloop
  endfacet
  facet normal 0 0 -1
    outer loop
      vertex 2 27.9142 0
      vertex 47.5 47.5 0
      vertex 5.24668 27.504 0
    endloop
  endfacet
  facet normal 0 0 -1
    outer loop
      vertex -2 23.8904 0
      vertex 2 23.8904 0
      vertex -2 -23.8904 0
    endloop
  endfacet
  facet normal 0 0 -1
    outer loop
      vertex 2 23.8904 0
      vertex -2 23.8904 0
      vertex 2 27.9142 0
    endloop
  endfacet
  facet normal 0 0 -1
    outer loop
      vertex -2 27.9142 0
      vertex 2 27.9142 0
      vertex -2 23.8904 0
    endloop
  endfacet
  facet normal 0 0 -1
    outer loop
      vertex -2 27.9142 0
      vertex 47.5 47.5 0
      vertex 2 27.9142 0
    endloop
  endfacet
  facet normal 0 0 -1
    outer loop
      vertex -47.5 47.5 0
      vertex -2 27.9142 0
      vertex -5.24668 27.504 0
    endloop
  endfacet
  facet normal 0 0 -1
    outer loop
      vertex -47.5 47.5 0
      vertex -5.24668 27.504 0
      vertex -8.65248 26.6296 0
    endloop
  endfacet
  facet normal 0 0 -1
    outer loop
      vertex -47.5 47.5 0
      vertex -27.8742 2 0
      vertex -47.5 -47.5 0
    endloop
  endfacet
  facet normal 0 0 -1
    outer loop
      vertex -27.8742 2 0
      vertex -47.5 47.5 0
      vertex -27.7792 3.50933 0
    endloop
  endfacet
  facet normal 0 0 -1
    outer loop
      vertex -27.7792 3.50933 0
      vertex -47.5 47.5 0
      vertex -27.1203 6.96332 0
    endloop
  endfacet
  facet normal 0 0 -1
    outer loop
      vertex -2 27.9142 0
      vertex -47.5 47.5 0
      vertex 47.5 47.5 0
    endloop
  endfacet
  facet normal 0 0 -1
    outer loop
      vertex -11.9218 25.3352 0
      vertex -47.5 47.5 0
      vertex -8.65248 26.6296 0
    endloop
  endfacet
  facet normal 0 0 -1
    outer loop
      vertex -15.0031 23.6412 0
      vertex -47.5 47.5 0
      vertex -11.9218 25.3352 0
    endloop
  endfacet
  facet normal 0 0 -1
    outer loop
      vertex -17.8479 21.5744 0
      vertex -47.5 47.5 0
      vertex -15.0031 23.6412 0
    endloop
  endfacet
  facet normal 0 0 -1
    outer loop
      vertex -20.4111 19.1673 0
      vertex -47.5 47.5 0
      vertex -17.8479 21.5744 0
    endloop
  endfacet
  facet normal 0 0 -1
    outer loop
      vertex -22.6525 16.458 0
      vertex -47.5 47.5 0
      vertex -20.4111 19.1673 0
    endloop
  endfacet
  facet normal 0 0 -1
    outer loop
      vertex -24.5366 13.4891 0
      vertex -47.5 47.5 0
      vertex -22.6525 16.458 0
    endloop
  endfacet
  facet normal 0 0 -1
    outer loop
      vertex -26.0337 10.3075 0
      vertex -47.5 47.5 0
      vertex -24.5366 13.4891 0
    endloop
  endfacet
  facet normal 0 0 -1
    outer loop
      vertex -27.1203 6.96332 0
      vertex -47.5 47.5 0
      vertex -26.0337 10.3075 0
    endloop
  endfacet
  facet normal 0 -1 0
    outer loop
      vertex -47.5 -47.5 0
      vertex 47.5 -47.5 2.5
      vertex -47.5 -47.5 2.5
    endloop
  endfacet
  facet normal 0 -1 -0
    outer loop
      vertex 47.5 -47.5 2.5
      vertex -47.5 -47.5 0
      vertex 47.5 -47.5 0
    endloop
  endfacet
  facet normal 0 1 -0
    outer loop
      vertex 47.5 47.5 0
      vertex -47.5 47.5 2.5
      vertex 47.5 47.5 2.5
    endloop
  endfacet
  facet normal 0 1 0
    outer loop
      vertex -47.5 47.5 2.5
      vertex 47.5 47.5 0
      vertex -47.5 47.5 0
    endloop
  endfacet
  facet normal -0.998027 -0.0627907 0
    outer loop
      vertex 27.8742 2 0
      vertex 27.7792 3.50933 2.5
      vertex 27.7792 3.50933 0
    endloop
  endfacet
  facet normal -0.998027 -0.0627907 0
    outer loop
      vertex 27.7792 3.50933 2.5
      vertex 27.8742 2 0
      vertex 27.8742 2 2.5
    endloop
  endfacet
  facet normal 0.998027 -0.0627907 0
    outer loop
      vertex -27.8742 2 2.5
      vertex -27.7792 3.50933 0
      vertex -27.7792 3.50933 2.5
    endloop
  endfacet
  facet normal 0.998027 -0.0627907 0
    outer loop
      vertex -27.7792 3.50933 0
      vertex -27.8742 2 2.5
      vertex -27.8742 2 0
    endloop
  endfacet
  facet normal -0.684547 -0.728969 0
    outer loop
      vertex 17.8479 21.5744 0
      vertex 20.4111 19.1673 2.5
      vertex 17.8479 21.5744 2.5
    endloop
  endfacet
  facet normal -0.684547 -0.728969 -0
    outer loop
      vertex 20.4111 19.1673 2.5
      vertex 17.8479 21.5744 0
      vertex 20.4111 19.1673 0
    endloop
  endfacet
  facet normal 0.684547 -0.728969 0
    outer loop
      vertex -20.4111 19.1673 0
      vertex -17.8479 21.5744 2.5
      vertex -20.4111 19.1673 2.5
    endloop
  endfacet
  facet normal 0.684547 -0.728969 0
    outer loop
      vertex -17.8479 21.5744 2.5
      vertex -20.4111 19.1673 0
      vertex -17.8479 21.5744 0
    endloop
  endfacet
  facet normal 0.368124 -0.929777 0
    outer loop
      vertex -11.9218 25.3352 0
      vertex -8.65248 26.6296 2.5
      vertex -11.9218 25.3352 2.5
    endloop
  endfacet
  facet normal 0.368124 -0.929777 0
    outer loop
      vertex -8.65248 26.6296 2.5
      vertex -11.9218 25.3352 0
      vertex -8.65248 26.6296 0
    endloop
  endfacet
  facet normal -0.904827 -0.425779 0
    outer loop
      vertex 26.0337 10.3075 0
      vertex 24.5366 13.4891 2.5
      vertex 24.5366 13.4891 0
    endloop
  endfacet
  facet normal -0.904827 -0.425779 0
    outer loop
      vertex 24.5366 13.4891 2.5
      vertex 26.0337 10.3075 0
      vertex 26.0337 10.3075 2.5
    endloop
  endfacet
  facet normal -0.982287 -0.187382 0
    outer loop
      vertex 27.7792 3.50933 0
      vertex 27.1203 6.96332 2.5
      vertex 27.1203 6.96332 0
    endloop
  endfacet
  facet normal -0.982287 -0.187382 0
    outer loop
      vertex 27.1203 6.96332 2.5
      vertex 27.7792 3.50933 0
      vertex 27.7792 3.50933 2.5
    endloop
  endfacet
  facet normal -0.368124 -0.929777 0
    outer loop
      vertex 8.65248 26.6296 0
      vertex 11.9218 25.3352 2.5
      vertex 8.65248 26.6296 2.5
    endloop
  endfacet
  facet normal -0.368124 -0.929777 -0
    outer loop
      vertex 11.9218 25.3352 2.5
      vertex 8.65248 26.6296 0
      vertex 11.9218 25.3352 0
    endloop
  endfacet
  facet normal -0.24869 -0.968583 0
    outer loop
      vertex 5.24668 27.504 0
      vertex 8.65248 26.6296 2.5
      vertex 5.24668 27.504 2.5
    endloop
  endfacet
  facet normal -0.24869 -0.968583 -0
    outer loop
      vertex 8.65248 26.6296 2.5
      vertex 5.24668 27.504 0
      vertex 8.65248 26.6296 0
    endloop
  endfacet
  facet normal -0.481754 -0.876307 0
    outer loop
      vertex 11.9218 25.3352 0
      vertex 15.0031 23.6412 2.5
      vertex 11.9218 25.3352 2.5
    endloop
  endfacet
  facet normal -0.481754 -0.876307 -0
    outer loop
      vertex 15.0031 23.6412 2.5
      vertex 11.9218 25.3352 0
      vertex 15.0031 23.6412 0
    endloop
  endfacet
  facet normal 0.904827 -0.425779 0
    outer loop
      vertex -26.0337 10.3075 2.5
      vertex -24.5366 13.4891 0
      vertex -24.5366 13.4891 2.5
    endloop
  endfacet
  facet normal 0.904827 -0.425779 0
    outer loop
      vertex -24.5366 13.4891 0
      vertex -26.0337 10.3075 2.5
      vertex -26.0337 10.3075 0
    endloop
  endfacet
  facet normal 0.951057 -0.309017 0
    outer loop
      vertex -27.1203 6.96332 2.5
      vertex -26.0337 10.3075 0
      vertex -26.0337 10.3075 2.5
    endloop
  endfacet
  facet normal 0.951057 -0.309017 0
    outer loop
      vertex -26.0337 10.3075 0
      vertex -27.1203 6.96332 2.5
      vertex -27.1203 6.96332 0
    endloop
  endfacet
  facet normal 0.24869 -0.968583 0
    outer loop
      vertex -8.65248 26.6296 0
      vertex -5.24668 27.504 2.5
      vertex -8.65248 26.6296 2.5
    endloop
  endfacet
  facet normal 0.24869 -0.968583 0
    outer loop
      vertex -5.24668 27.504 2.5
      vertex -8.65248 26.6296 0
      vertex -5.24668 27.504 0
    endloop
  endfacet
  facet normal -0.125333 0.992115 0
    outer loop
      vertex 5.24668 -27.504 0
      vertex 2 -27.9142 2.5
      vertex 5.24668 -27.504 2.5
    endloop
  endfacet
  facet normal -0.125333 0.992115 0
    outer loop
      vertex 2 -27.9142 2.5
      vertex 5.24668 -27.504 0
      vertex 2 -27.9142 0
    endloop
  endfacet
  facet normal -0.951057 -0.309017 0
    outer loop
      vertex 27.1203 6.96332 0
      vertex 26.0337 10.3075 2.5
      vertex 26.0337 10.3075 0
    endloop
  endfacet
  facet normal -0.951057 -0.309017 0
    outer loop
      vertex 26.0337 10.3075 2.5
      vertex 27.1203 6.96332 0
      vertex 27.1203 6.96332 2.5
    endloop
  endfacet
  facet normal -0.770513 -0.637424 0
    outer loop
      vertex 22.6525 16.458 0
      vertex 20.4111 19.1673 2.5
      vertex 20.4111 19.1673 0
    endloop
  endfacet
  facet normal -0.770513 -0.637424 0
    outer loop
      vertex 20.4111 19.1673 2.5
      vertex 22.6525 16.458 0
      vertex 22.6525 16.458 2.5
    endloop
  endfacet
  facet normal -0.844328 -0.535827 0
    outer loop
      vertex 24.5366 13.4891 0
      vertex 22.6525 16.458 2.5
      vertex 22.6525 16.458 0
    endloop
  endfacet
  facet normal -0.844328 -0.535827 0
    outer loop
      vertex 22.6525 16.458 2.5
      vertex 24.5366 13.4891 0
      vertex 24.5366 13.4891 2.5
    endloop
  endfacet
  facet normal -0.125333 -0.992115 0
    outer loop
      vertex 2 27.9142 0
      vertex 5.24668 27.504 2.5
      vertex 2 27.9142 2.5
    endloop
  endfacet
  facet normal -0.125333 -0.992115 -0
    outer loop
      vertex 5.24668 27.504 2.5
      vertex 2 27.9142 0
      vertex 5.24668 27.504 0
    endloop
  endfacet
  facet normal -0.587785 -0.809017 0
    outer loop
      vertex 15.0031 23.6412 0
      vertex 17.8479 21.5744 2.5
      vertex 15.0031 23.6412 2.5
    endloop
  endfacet
  facet normal -0.587785 -0.809017 -0
    outer loop
      vertex 17.8479 21.5744 2.5
      vertex 15.0031 23.6412 0
      vertex 17.8479 21.5744 0
    endloop
  endfacet
  facet normal 0.844328 -0.535827 0
    outer loop
      vertex -24.5366 13.4891 2.5
      vertex -22.6525 16.458 0
      vertex -22.6525 16.458 2.5
    endloop
  endfacet
  facet normal 0.844328 -0.535827 0
    outer loop
      vertex -22.6525 16.458 0
      vertex -24.5366 13.4891 2.5
      vertex -24.5366 13.4891 0
    endloop
  endfacet
  facet normal 0.770513 -0.637424 0
    outer loop
      vertex -22.6525 16.458 2.5
      vertex -20.4111 19.1673 0
      vertex -20.4111 19.1673 2.5
    endloop
  endfacet
  facet normal 0.770513 -0.637424 0
    outer loop
      vertex -20.4111 19.1673 0
      vertex -22.6525 16.458 2.5
      vertex -22.6525 16.458 0
    endloop
  endfacet
  facet normal 0.982287 -0.187382 0
    outer loop
      vertex -27.7792 3.50933 2.5
      vertex -27.1203 6.96332 0
      vertex -27.1203 6.96332 2.5
    endloop
  endfacet
  facet normal 0.982287 -0.187382 0
    outer loop
      vertex -27.1203 6.96332 0
      vertex -27.7792 3.50933 2.5
      vertex -27.7792 3.50933 0
    endloop
  endfacet
  facet normal 0.481754 -0.876307 0
    outer loop
      vertex -15.0031 23.6412 0
      vertex -11.9218 25.3352 2.5
      vertex -15.0031 23.6412 2.5
    endloop
  endfacet
  facet normal 0.481754 -0.876307 0
    outer loop
      vertex -11.9218 25.3352 2.5
      vertex -15.0031 23.6412 0
      vertex -11.9218 25.3352 0
    endloop
  endfacet
  facet normal 0.587785 -0.809017 0
    outer loop
      vertex -17.8479 21.5744 0
      vertex -15.0031 23.6412 2.5
      vertex -17.8479 21.5744 2.5
    endloop
  endfacet
  facet normal 0.587785 -0.809017 0
    outer loop
      vertex -15.0031 23.6412 2.5
      vertex -17.8479 21.5744 0
      vertex -15.0031 23.6412 0
    endloop
  endfacet
  facet normal 0.125333 -0.992115 0
    outer loop
      vertex -5.24668 27.504 0
      vertex -2 27.9142 2.5
      vertex -5.24668 27.504 2.5
    endloop
  endfacet
  facet normal 0.125333 -0.992115 0
    outer loop
      vertex -2 27.9142 2.5
      vertex -5.24668 27.504 0
      vertex -2 27.9142 0
    endloop
  endfacet
  facet normal -0.982287 0.187382 0
    outer loop
      vertex 27.1203 -6.96332 0
      vertex 27.7792 -3.50933 2.5
      vertex 27.7792 -3.50933 0
    endloop
  endfacet
  facet normal -0.982287 0.187382 0
    outer loop
      vertex 27.7792 -3.50933 2.5
      vertex 27.1203 -6.96332 0
      vertex 27.1203 -6.96332 2.5
    endloop
  endfacet
  facet normal 0.684547 0.728969 -0
    outer loop
      vertex -17.8479 -21.5744 0
      vertex -20.4111 -19.1673 2.5
      vertex -17.8479 -21.5744 2.5
    endloop
  endfacet
  facet normal 0.684547 0.728969 0
    outer loop
      vertex -20.4111 -19.1673 2.5
      vertex -17.8479 -21.5744 0
      vertex -20.4111 -19.1673 0
    endloop
  endfacet
  facet normal 0.904827 0.425779 0
    outer loop
      vertex -24.5366 -13.4891 2.5
      vertex -26.0337 -10.3075 0
      vertex -26.0337 -10.3075 2.5
    endloop
  endfacet
  facet normal 0.904827 0.425779 0
    outer loop
      vertex -26.0337 -10.3075 0
      vertex -24.5366 -13.4891 2.5
      vertex -24.5366 -13.4891 0
    endloop
  endfacet
  facet normal 0.844328 0.535827 0
    outer loop
      vertex -22.6525 -16.458 2.5
      vertex -24.5366 -13.4891 0
      vertex -24.5366 -13.4891 2.5
    endloop
  endfacet
  facet normal 0.844328 0.535827 0
    outer loop
      vertex -24.5366 -13.4891 0
      vertex -22.6525 -16.458 2.5
      vertex -22.6525 -16.458 0
    endloop
  endfacet
  facet normal -0.481754 0.876307 0
    outer loop
      vertex 15.0031 -23.6412 0
      vertex 11.9218 -25.3352 2.5
      vertex 15.0031 -23.6412 2.5
    endloop
  endfacet
  facet normal -0.481754 0.876307 0
    outer loop
      vertex 11.9218 -25.3352 2.5
      vertex 15.0031 -23.6412 0
      vertex 11.9218 -25.3352 0
    endloop
  endfacet
  facet normal -0.770513 0.637424 0
    outer loop
      vertex 20.4111 -19.1673 0
      vertex 22.6525 -16.458 2.5
      vertex 22.6525 -16.458 0
    endloop
  endfacet
  facet normal -0.770513 0.637424 0
    outer loop
      vertex 22.6525 -16.458 2.5
      vertex 20.4111 -19.1673 0
      vertex 20.4111 -19.1673 2.5
    endloop
  endfacet
  facet normal -0.904827 0.425779 0
    outer loop
      vertex 24.5366 -13.4891 0
      vertex 26.0337 -10.3075 2.5
      vertex 26.0337 -10.3075 0
    endloop
  endfacet
  facet normal -0.904827 0.425779 0
    outer loop
      vertex 26.0337 -10.3075 2.5
      vertex 24.5366 -13.4891 0
      vertex 24.5366 -13.4891 2.5
    endloop
  endfacet
  facet normal -0.998027 0.0627907 0
    outer loop
      vertex 27.7792 -3.50933 0
      vertex 27.8742 -2 2.5
      vertex 27.8742 -2 0
    endloop
  endfacet
  facet normal -0.998027 0.0627907 0
    outer loop
      vertex 27.8742 -2 2.5
      vertex 27.7792 -3.50933 0
      vertex 27.7792 -3.50933 2.5
    endloop
  endfacet
  facet normal 0.368124 0.929777 -0
    outer loop
      vertex -8.65248 -26.6296 0
      vertex -11.9218 -25.3352 2.5
      vertex -8.65248 -26.6296 2.5
    endloop
  endfacet
  facet normal 0.368124 0.929777 0
    outer loop
      vertex -11.9218 -25.3352 2.5
      vertex -8.65248 -26.6296 0
      vertex -11.9218 -25.3352 0
    endloop
  endfacet
  facet normal 0.770513 0.637424 0
    outer loop
      vertex -20.4111 -19.1673 2.5
      vertex -22.6525 -16.458 0
      vertex -22.6525 -16.458 2.5
    endloop
  endfacet
  facet normal 0.770513 0.637424 0
    outer loop
      vertex -22.6525 -16.458 0
      vertex -20.4111 -19.1673 2.5
      vertex -20.4111 -19.1673 0
    endloop
  endfacet
  facet normal 0.951057 0.309017 0
    outer loop
      vertex -26.0337 -10.3075 2.5
      vertex -27.1203 -6.96332 0
      vertex -27.1203 -6.96332 2.5
    endloop
  endfacet
  facet normal 0.951057 0.309017 0
    outer loop
      vertex -27.1203 -6.96332 0
      vertex -26.0337 -10.3075 2.5
      vertex -26.0337 -10.3075 0
    endloop
  endfacet
  facet normal 0.998027 0.0627907 0
    outer loop
      vertex -27.7792 -3.50933 2.5
      vertex -27.8742 -2 0
      vertex -27.8742 -2 2.5
    endloop
  endfacet
  facet normal 0.998027 0.0627907 0
    outer loop
      vertex -27.8742 -2 0
      vertex -27.7792 -3.50933 2.5
      vertex -27.7792 -3.50933 0
    endloop
  endfacet
  facet normal -0.684547 0.728969 0
    outer loop
      vertex 20.4111 -19.1673 0
      vertex 17.8479 -21.5744 2.5
      vertex 20.4111 -19.1673 2.5
    endloop
  endfacet
  facet normal -0.684547 0.728969 0
    outer loop
      vertex 17.8479 -21.5744 2.5
      vertex 20.4111 -19.1673 0
      vertex 17.8479 -21.5744 0
    endloop
  endfacet
  facet normal -0.368124 0.929777 0
    outer loop
      vertex 11.9218 -25.3352 0
      vertex 8.65248 -26.6296 2.5
      vertex 11.9218 -25.3352 2.5
    endloop
  endfacet
  facet normal -0.368124 0.929777 0
    outer loop
      vertex 8.65248 -26.6296 2.5
      vertex 11.9218 -25.3352 0
      vertex 8.65248 -26.6296 0
    endloop
  endfacet
  facet normal -0.24869 0.968583 0
    outer loop
      vertex 8.65248 -26.6296 0
      vertex 5.24668 -27.504 2.5
      vertex 8.65248 -26.6296 2.5
    endloop
  endfacet
  facet normal -0.24869 0.968583 0
    outer loop
      vertex 5.24668 -27.504 2.5
      vertex 8.65248 -26.6296 0
      vertex 5.24668 -27.504 0
    endloop
  endfacet
  facet normal -0.844328 0.535827 0
    outer loop
      vertex 22.6525 -16.458 0
      vertex 24.5366 -13.4891 2.5
      vertex 24.5366 -13.4891 0
    endloop
  endfacet
  facet normal -0.844328 0.535827 0
    outer loop
      vertex 24.5366 -13.4891 2.5
      vertex 22.6525 -16.458 0
      vertex 22.6525 -16.458 2.5
    endloop
  endfacet
  facet normal -0.951057 0.309017 0
    outer loop
      vertex 26.0337 -10.3075 0
      vertex 27.1203 -6.96332 2.5
      vertex 27.1203 -6.96332 0
    endloop
  endfacet
  facet normal -0.951057 0.309017 0
    outer loop
      vertex 27.1203 -6.96332 2.5
      vertex 26.0337 -10.3075 0
      vertex 26.0337 -10.3075 2.5
    endloop
  endfacet
  facet normal 0.587785 0.809017 -0
    outer loop
      vertex -15.0031 -23.6412 0
      vertex -17.8479 -21.5744 2.5
      vertex -15.0031 -23.6412 2.5
    endloop
  endfacet
  facet normal 0.587785 0.809017 0
    outer loop
      vertex -17.8479 -21.5744 2.5
      vertex -15.0031 -23.6412 0
      vertex -17.8479 -21.5744 0
    endloop
  endfacet
  facet normal 0.481754 0.876307 -0
    outer loop
      vertex -11.9218 -25.3352 0
      vertex -15.0031 -23.6412 2.5
      vertex -11.9218 -25.3352 2.5
    endloop
  endfacet
  facet normal 0.481754 0.876307 0
    outer loop
      vertex -15.0031 -23.6412 2.5
      vertex -11.9218 -25.3352 0
      vertex -15.0031 -23.6412 0
    endloop
  endfacet
  facet normal 0.982287 0.187382 0
    outer loop
      vertex -27.1203 -6.96332 2.5
      vertex -27.7792 -3.50933 0
      vertex -27.7792 -3.50933 2.5
    endloop
  endfacet
  facet normal 0.982287 0.187382 0
    outer loop
      vertex -27.7792 -3.50933 0
      vertex -27.1203 -6.96332 2.5
      vertex -27.1203 -6.96332 0
    endloop
  endfacet
  facet normal -0.587785 0.809017 0
    outer loop
      vertex 17.8479 -21.5744 0
      vertex 15.0031 -23.6412 2.5
      vertex 17.8479 -21.5744 2.5
    endloop
  endfacet
  facet normal -0.587785 0.809017 0
    outer loop
      vertex 15.0031 -23.6412 2.5
      vertex 17.8479 -21.5744 0
      vertex 15.0031 -23.6412 0
    endloop
  endfacet
  facet normal 0.24869 0.968583 -0
    outer loop
      vertex -5.24668 -27.504 0
      vertex -8.65248 -26.6296 2.5
      vertex -5.24668 -27.504 2.5
    endloop
  endfacet
  facet normal 0.24869 0.968583 0
    outer loop
      vertex -8.65248 -26.6296 2.5
      vertex -5.24668 -27.504 0
      vertex -8.65248 -26.6296 0
    endloop
  endfacet
  facet normal 0.125333 0.992115 -0
    outer loop
      vertex -2 -27.9142 0
      vertex -5.24668 -27.504 2.5
      vertex -2 -27.9142 2.5
    endloop
  endfacet
  facet normal 0.125333 0.992115 0
    outer loop
      vertex -5.24668 -27.504 2.5
      vertex -2 -27.9142 0
      vertex -5.24668 -27.504 0
    endloop
  endfacet
  facet normal 0.998027 0.0627901 0
    outer loop
      vertex 23.8742 2 2.5
      vertex 23.8108 3.008 0
      vertex 23.8108 3.008 2.5
    endloop
  endfacet
  facet normal 0.998027 0.0627901 0
    outer loop
      vertex 23.8108 3.008 0
      vertex 23.8742 2 2.5
      vertex 23.8742 2 0
    endloop
  endfacet
  facet normal -0.998027 0.0627901 0
    outer loop
      vertex -23.8742 2 0
      vertex -23.8108 3.008 2.5
      vertex -23.8108 3.008 0
    endloop
  endfacet
  facet normal -0.998027 0.0627901 0
    outer loop
      vertex -23.8108 3.008 2.5
      vertex -23.8742 2 0
      vertex -23.8742 2 2.5
    endloop
  endfacet
  facet normal 0.684547 0.728969 -0
    outer loop
      vertex 17.4952 16.4291 0
      vertex 15.2982 18.4923 2.5
      vertex 17.4952 16.4291 2.5
    endloop
  endfacet
  facet normal 0.684547 0.728969 0
    outer loop
      vertex 15.2982 18.4923 2.5
      vertex 17.4952 16.4291 0
      vertex 15.2982 18.4923 0
    endloop
  endfacet
  facet normal -0.684547 0.728969 0
    outer loop
      vertex -15.2982 18.4923 0
      vertex -17.4952 16.4291 2.5
      vertex -15.2982 18.4923 2.5
    endloop
  endfacet
  facet normal -0.684547 0.728969 0
    outer loop
      vertex -17.4952 16.4291 2.5
      vertex -15.2982 18.4923 0
      vertex -17.4952 16.4291 0
    endloop
  endfacet
  facet normal -0.368124 0.929777 0
    outer loop
      vertex -7.41641 22.8254 0
      vertex -10.2187 21.7158 2.5
      vertex -7.41641 22.8254 2.5
    endloop
  endfacet
  facet normal -0.368124 0.929777 0
    outer loop
      vertex -10.2187 21.7158 2.5
      vertex -7.41641 22.8254 0
      vertex -10.2187 21.7158 0
    endloop
  endfacet
  facet normal 0.904827 0.425779 0
    outer loop
      vertex 22.3146 8.83499 2.5
      vertex 21.0314 11.5621 0
      vertex 21.0314 11.5621 2.5
    endloop
  endfacet
  facet normal 0.904827 0.425779 0
    outer loop
      vertex 21.0314 11.5621 0
      vertex 22.3146 8.83499 2.5
      vertex 22.3146 8.83499 0
    endloop
  endfacet
  facet normal 0.982287 0.187382 0
    outer loop
      vertex 23.8108 3.008 2.5
      vertex 23.246 5.96856 0
      vertex 23.246 5.96856 2.5
    endloop
  endfacet
  facet normal 0.982287 0.187382 0
    outer loop
      vertex 23.246 5.96856 0
      vertex 23.8108 3.008 2.5
      vertex 23.8108 3.008 0
    endloop
  endfacet
  facet normal 0.844328 0.535827 0
    outer loop
      vertex 21.0314 11.5621 2.5
      vertex 19.4164 14.1068 0
      vertex 19.4164 14.1068 2.5
    endloop
  endfacet
  facet normal 0.844328 0.535827 0
    outer loop
      vertex 19.4164 14.1068 0
      vertex 21.0314 11.5621 2.5
      vertex 21.0314 11.5621 0
    endloop
  endfacet
  facet normal 0.368124 0.929777 -0
    outer loop
      vertex 10.2187 21.7158 0
      vertex 7.41641 22.8254 2.5
      vertex 10.2187 21.7158 2.5
    endloop
  endfacet
  facet normal 0.368124 0.929777 0
    outer loop
      vertex 7.41641 22.8254 2.5
      vertex 10.2187 21.7158 0
      vertex 7.41641 22.8254 0
    endloop
  endfacet
  facet normal 0.24869 0.968583 -0
    outer loop
      vertex 7.41641 22.8254 0
      vertex 4.49715 23.5749 2.5
      vertex 7.41641 22.8254 2.5
    endloop
  endfacet
  facet normal 0.24869 0.968583 0
    outer loop
      vertex 4.49715 23.5749 2.5
      vertex 7.41641 22.8254 0
      vertex 4.49715 23.5749 0
    endloop
  endfacet
  facet normal 0.481754 0.876307 -0
    outer loop
      vertex 12.8598 20.2639 0
      vertex 10.2187 21.7158 2.5
      vertex 12.8598 20.2639 2.5
    endloop
  endfacet
  facet normal 0.481754 0.876307 0
    outer loop
      vertex 10.2187 21.7158 2.5
      vertex 12.8598 20.2639 0
      vertex 10.2187 21.7158 0
    endloop
  endfacet
  facet normal -0.844328 0.535827 0
    outer loop
      vertex -21.0314 11.5621 0
      vertex -19.4164 14.1068 2.5
      vertex -19.4164 14.1068 0
    endloop
  endfacet
  facet normal -0.844328 0.535827 0
    outer loop
      vertex -19.4164 14.1068 2.5
      vertex -21.0314 11.5621 0
      vertex -21.0314 11.5621 2.5
    endloop
  endfacet
  facet normal -0.770513 0.637424 0
    outer loop
      vertex -19.4164 14.1068 0
      vertex -17.4952 16.4291 2.5
      vertex -17.4952 16.4291 0
    endloop
  endfacet
  facet normal -0.770513 0.637424 0
    outer loop
      vertex -17.4952 16.4291 2.5
      vertex -19.4164 14.1068 0
      vertex -19.4164 14.1068 2.5
    endloop
  endfacet
  facet normal -0.951057 0.309016 0
    outer loop
      vertex -23.246 5.96856 0
      vertex -22.3146 8.83499 2.5
      vertex -22.3146 8.83499 0
    endloop
  endfacet
  facet normal -0.951057 0.309016 0
    outer loop
      vertex -22.3146 8.83499 2.5
      vertex -23.246 5.96856 0
      vertex -23.246 5.96856 2.5
    endloop
  endfacet
  facet normal -0.587785 0.809017 0
    outer loop
      vertex -12.8598 20.2639 0
      vertex -15.2982 18.4923 2.5
      vertex -12.8598 20.2639 2.5
    endloop
  endfacet
  facet normal -0.587785 0.809017 0
    outer loop
      vertex -15.2982 18.4923 2.5
      vertex -12.8598 20.2639 0
      vertex -15.2982 18.4923 0
    endloop
  endfacet
  facet normal -0.125333 0.992115 0
    outer loop
      vertex -2 23.8904 0
      vertex -4.49715 23.5749 2.5
      vertex -2 23.8904 2.5
    endloop
  endfacet
  facet normal -0.125333 0.992115 0
    outer loop
      vertex -4.49715 23.5749 2.5
      vertex -2 23.8904 0
      vertex -4.49715 23.5749 0
    endloop
  endfacet
  facet normal 0.125333 -0.992115 0
    outer loop
      vertex 2 -23.8904 0
      vertex 4.49715 -23.5749 2.5
      vertex 2 -23.8904 2.5
    endloop
  endfacet
  facet normal 0.125333 -0.992115 0
    outer loop
      vertex 4.49715 -23.5749 2.5
      vertex 2 -23.8904 0
      vertex 4.49715 -23.5749 0
    endloop
  endfacet
  facet normal 0.951057 0.309016 0
    outer loop
      vertex 23.246 5.96856 2.5
      vertex 22.3146 8.83499 0
      vertex 22.3146 8.83499 2.5
    endloop
  endfacet
  facet normal 0.951057 0.309016 0
    outer loop
      vertex 22.3146 8.83499 0
      vertex 23.246 5.96856 2.5
      vertex 23.246 5.96856 0
    endloop
  endfacet
  facet normal 0.770513 0.637424 0
    outer loop
      vertex 19.4164 14.1068 2.5
      vertex 17.4952 16.4291 0
      vertex 17.4952 16.4291 2.5
    endloop
  endfacet
  facet normal 0.770513 0.637424 0
    outer loop
      vertex 17.4952 16.4291 0
      vertex 19.4164 14.1068 2.5
      vertex 19.4164 14.1068 0
    endloop
  endfacet
  facet normal 0.125333 0.992115 -0
    outer loop
      vertex 4.49715 23.5749 0
      vertex 2 23.8904 2.5
      vertex 4.49715 23.5749 2.5
    endloop
  endfacet
  facet normal 0.125333 0.992115 0
    outer loop
      vertex 2 23.8904 2.5
      vertex 4.49715 23.5749 0
      vertex 2 23.8904 0
    endloop
  endfacet
  facet normal 0.587785 0.809017 -0
    outer loop
      vertex 15.2982 18.4923 0
      vertex 12.8598 20.2639 2.5
      vertex 15.2982 18.4923 2.5
    endloop
  endfacet
  facet normal 0.587785 0.809017 0
    outer loop
      vertex 12.8598 20.2639 2.5
      vertex 15.2982 18.4923 0
      vertex 12.8598 20.2639 0
    endloop
  endfacet
  facet normal -0.904827 0.425779 0
    outer loop
      vertex -22.3146 8.83499 0
      vertex -21.0314 11.5621 2.5
      vertex -21.0314 11.5621 0
    endloop
  endfacet
  facet normal -0.904827 0.425779 0
    outer loop
      vertex -21.0314 11.5621 2.5
      vertex -22.3146 8.83499 0
      vertex -22.3146 8.83499 2.5
    endloop
  endfacet
  facet normal -0.982287 0.187382 0
    outer loop
      vertex -23.8108 3.008 0
      vertex -23.246 5.96856 2.5
      vertex -23.246 5.96856 0
    endloop
  endfacet
  facet normal -0.982287 0.187382 0
    outer loop
      vertex -23.246 5.96856 2.5
      vertex -23.8108 3.008 0
      vertex -23.8108 3.008 2.5
    endloop
  endfacet
  facet normal -0.481754 0.876307 0
    outer loop
      vertex -10.2187 21.7158 0
      vertex -12.8598 20.2639 2.5
      vertex -10.2187 21.7158 2.5
    endloop
  endfacet
  facet normal -0.481754 0.876307 0
    outer loop
      vertex -12.8598 20.2639 2.5
      vertex -10.2187 21.7158 0
      vertex -12.8598 20.2639 0
    endloop
  endfacet
  facet normal 0.998027 -0.0627901 0
    outer loop
      vertex 23.8108 -3.008 2.5
      vertex 23.8742 -2 0
      vertex 23.8742 -2 2.5
    endloop
  endfacet
  facet normal 0.998027 -0.0627901 0
    outer loop
      vertex 23.8742 -2 0
      vertex 23.8108 -3.008 2.5
      vertex 23.8108 -3.008 0
    endloop
  endfacet
  facet normal 0.770513 -0.637424 0
    outer loop
      vertex 17.4952 -16.4291 2.5
      vertex 19.4164 -14.1068 0
      vertex 19.4164 -14.1068 2.5
    endloop
  endfacet
  facet normal 0.770513 -0.637424 0
    outer loop
      vertex 19.4164 -14.1068 0
      vertex 17.4952 -16.4291 2.5
      vertex 17.4952 -16.4291 0
    endloop
  endfacet
  facet normal 0.951057 -0.309016 0
    outer loop
      vertex 22.3146 -8.83499 2.5
      vertex 23.246 -5.96856 0
      vertex 23.246 -5.96856 2.5
    endloop
  endfacet
  facet normal 0.951057 -0.309016 0
    outer loop
      vertex 23.246 -5.96856 0
      vertex 22.3146 -8.83499 2.5
      vertex 22.3146 -8.83499 0
    endloop
  endfacet
  facet normal 0.982287 -0.187382 0
    outer loop
      vertex 23.246 -5.96856 2.5
      vertex 23.8108 -3.008 0
      vertex 23.8108 -3.008 2.5
    endloop
  endfacet
  facet normal 0.982287 -0.187382 0
    outer loop
      vertex 23.8108 -3.008 0
      vertex 23.246 -5.96856 2.5
      vertex 23.246 -5.96856 0
    endloop
  endfacet
  facet normal 0.368124 -0.929777 0
    outer loop
      vertex 7.41641 -22.8254 0
      vertex 10.2187 -21.7158 2.5
      vertex 7.41641 -22.8254 2.5
    endloop
  endfacet
  facet normal 0.368124 -0.929777 0
    outer loop
      vertex 10.2187 -21.7158 2.5
      vertex 7.41641 -22.8254 0
      vertex 10.2187 -21.7158 0
    endloop
  endfacet
  facet normal -0.24869 0.968583 0
    outer loop
      vertex -4.49715 23.5749 0
      vertex -7.41641 22.8254 2.5
      vertex -4.49715 23.5749 2.5
    endloop
  endfacet
  facet normal -0.24869 0.968583 0
    outer loop
      vertex -7.41641 22.8254 2.5
      vertex -4.49715 23.5749 0
      vertex -7.41641 22.8254 0
    endloop
  endfacet
  facet normal 0.684547 -0.728969 0
    outer loop
      vertex 15.2982 -18.4923 0
      vertex 17.4952 -16.4291 2.5
      vertex 15.2982 -18.4923 2.5
    endloop
  endfacet
  facet normal 0.684547 -0.728969 0
    outer loop
      vertex 17.4952 -16.4291 2.5
      vertex 15.2982 -18.4923 0
      vertex 17.4952 -16.4291 0
    endloop
  endfacet
  facet normal 0.844328 -0.535827 0
    outer loop
      vertex 19.4164 -14.1068 2.5
      vertex 21.0314 -11.5621 0
      vertex 21.0314 -11.5621 2.5
    endloop
  endfacet
  facet normal 0.844328 -0.535827 0
    outer loop
      vertex 21.0314 -11.5621 0
      vertex 19.4164 -14.1068 2.5
      vertex 19.4164 -14.1068 0
    endloop
  endfacet
  facet normal -0.481754 -0.876307 0
    outer loop
      vertex -12.8598 -20.2639 0
      vertex -10.2187 -21.7158 2.5
      vertex -12.8598 -20.2639 2.5
    endloop
  endfacet
  facet normal -0.481754 -0.876307 -0
    outer loop
      vertex -10.2187 -21.7158 2.5
      vertex -12.8598 -20.2639 0
      vertex -10.2187 -21.7158 0
    endloop
  endfacet
  facet normal -0.368124 -0.929777 0
    outer loop
      vertex -10.2187 -21.7158 0
      vertex -7.41641 -22.8254 2.5
      vertex -10.2187 -21.7158 2.5
    endloop
  endfacet
  facet normal -0.368124 -0.929777 -0
    outer loop
      vertex -7.41641 -22.8254 2.5
      vertex -10.2187 -21.7158 0
      vertex -7.41641 -22.8254 0
    endloop
  endfacet
  facet normal -0.684547 -0.728969 0
    outer loop
      vertex -17.4952 -16.4291 0
      vertex -15.2982 -18.4923 2.5
      vertex -17.4952 -16.4291 2.5
    endloop
  endfacet
  facet normal -0.684547 -0.728969 -0
    outer loop
      vertex -15.2982 -18.4923 2.5
      vertex -17.4952 -16.4291 0
      vertex -15.2982 -18.4923 0
    endloop
  endfacet
  facet normal -0.770513 -0.637424 0
    outer loop
      vertex -17.4952 -16.4291 0
      vertex -19.4164 -14.1068 2.5
      vertex -19.4164 -14.1068 0
    endloop
  endfacet
  facet normal -0.770513 -0.637424 0
    outer loop
      vertex -19.4164 -14.1068 2.5
      vertex -17.4952 -16.4291 0
      vertex -17.4952 -16.4291 2.5
    endloop
  endfacet
  facet normal -0.951057 -0.309016 0
    outer loop
      vertex -22.3146 -8.83499 0
      vertex -23.246 -5.96856 2.5
      vertex -23.246 -5.96856 0
    endloop
  endfacet
  facet normal -0.951057 -0.309016 0
    outer loop
      vertex -23.246 -5.96856 2.5
      vertex -22.3146 -8.83499 0
      vertex -22.3146 -8.83499 2.5
    endloop
  endfacet
  facet normal 0.24869 -0.968583 0
    outer loop
      vertex 4.49715 -23.5749 0
      vertex 7.41641 -22.8254 2.5
      vertex 4.49715 -23.5749 2.5
    endloop
  endfacet
  facet normal 0.24869 -0.968583 0
    outer loop
      vertex 7.41641 -22.8254 2.5
      vertex 4.49715 -23.5749 0
      vertex 7.41641 -22.8254 0
    endloop
  endfacet
  facet normal 0.481754 -0.876307 0
    outer loop
      vertex 10.2187 -21.7158 0
      vertex 12.8598 -20.2639 2.5
      vertex 10.2187 -21.7158 2.5
    endloop
  endfacet
  facet normal 0.481754 -0.876307 0
    outer loop
      vertex 12.8598 -20.2639 2.5
      vertex 10.2187 -21.7158 0
      vertex 12.8598 -20.2639 0
    endloop
  endfacet
  facet normal 0.587785 -0.809017 0
    outer loop
      vertex 12.8598 -20.2639 0
      vertex 15.2982 -18.4923 2.5
      vertex 12.8598 -20.2639 2.5
    endloop
  endfacet
  facet normal 0.587785 -0.809017 0
    outer loop
      vertex 15.2982 -18.4923 2.5
      vertex 12.8598 -20.2639 0
      vertex 15.2982 -18.4923 0
    endloop
  endfacet
  facet normal 0.904827 -0.425779 0
    outer loop
      vertex 21.0314 -11.5621 2.5
      vertex 22.3146 -8.83499 0
      vertex 22.3146 -8.83499 2.5
    endloop
  endfacet
  facet normal 0.904827 -0.425779 0
    outer loop
      vertex 22.3146 -8.83499 0
      vertex 21.0314 -11.5621 2.5
      vertex 21.0314 -11.5621 0
    endloop
  endfacet
  facet normal -0.125333 -0.992115 0
    outer loop
      vertex -4.49715 -23.5749 0
      vertex -2 -23.8904 2.5
      vertex -4.49715 -23.5749 2.5
    endloop
  endfacet
  facet normal -0.125333 -0.992115 -0
    outer loop
      vertex -2 -23.8904 2.5
      vertex -4.49715 -23.5749 0
      vertex -2 -23.8904 0
    endloop
  endfacet
  facet normal -0.587785 -0.809017 0
    outer loop
      vertex -15.2982 -18.4923 0
      vertex -12.8598 -20.2639 2.5
      vertex -15.2982 -18.4923 2.5
    endloop
  endfacet
  facet normal -0.587785 -0.809017 -0
    outer loop
      vertex -12.8598 -20.2639 2.5
      vertex -15.2982 -18.4923 0
      vertex -12.8598 -20.2639 0
    endloop
  endfacet
  facet normal -0.844328 -0.535827 0
    outer loop
      vertex -19.4164 -14.1068 0
      vertex -21.0314 -11.5621 2.5
      vertex -21.0314 -11.5621 0
    endloop
  endfacet
  facet normal -0.844328 -0.535827 0
    outer loop
      vertex -21.0314 -11.5621 2.5
      vertex -19.4164 -14.1068 0
      vertex -19.4164 -14.1068 2.5
    endloop
  endfacet
  facet normal -0.904827 -0.425779 0
    outer loop
      vertex -21.0314 -11.5621 0
      vertex -22.3146 -8.83499 2.5
      vertex -22.3146 -8.83499 0
    endloop
  endfacet
  facet normal -0.904827 -0.425779 0
    outer loop
      vertex -22.3146 -8.83499 2.5
      vertex -21.0314 -11.5621 0
      vertex -21.0314 -11.5621 2.5
    endloop
  endfacet
  facet normal -0.982287 -0.187382 0
    outer loop
      vertex -23.246 -5.96856 0
      vertex -23.8108 -3.008 2.5
      vertex -23.8108 -3.008 0
    endloop
  endfacet
  facet normal -0.982287 -0.187382 0
    outer loop
      vertex -23.8108 -3.008 2.5
      vertex -23.246 -5.96856 0
      vertex -23.246 -5.96856 2.5
    endloop
  endfacet
  facet normal -0.998027 -0.0627901 0
    outer loop
      vertex -23.8108 -3.008 0
      vertex -23.8742 -2 2.5
      vertex -23.8742 -2 0
    endloop
  endfacet
  facet normal -0.998027 -0.0627901 0
    outer loop
      vertex -23.8742 -2 2.5
      vertex -23.8108 -3.008 0
      vertex -23.8108 -3.008 2.5
    endloop
  endfacet
  facet normal -0.24869 -0.968583 0
    outer loop
      vertex -7.41641 -22.8254 0
      vertex -4.49715 -23.5749 2.5
      vertex -7.41641 -22.8254 2.5
    endloop
  endfacet
  facet normal -0.24869 -0.968583 -0
    outer loop
      vertex -4.49715 -23.5749 2.5
      vertex -7.41641 -22.8254 0
      vertex -4.49715 -23.5749 0
    endloop
  endfacet
  facet normal -1 0 0
    outer loop
      vertex -2 23.8904 0
      vertex -2 27.9142 2.5
      vertex -2 27.9142 0
    endloop
  endfacet
  facet normal -1 -0 0
    outer loop
      vertex -2 27.9142 2.5
      vertex -2 23.8904 0
      vertex -2 23.8904 2.5
    endloop
  endfacet
  facet normal -1 0 0
    outer loop
      vertex -2 -27.9142 0
      vertex -2 -23.8904 2.5
      vertex -2 -23.8904 0
    endloop
  endfacet
  facet normal -1 -0 0
    outer loop
      vertex -2 -23.8904 2.5
      vertex -2 -27.9142 0
      vertex -2 -27.9142 2.5
    endloop
  endfacet
  facet normal 1 -0 0
    outer loop
      vertex 2 -27.9142 2.5
      vertex 2 -23.8904 0
      vertex 2 -23.8904 2.5
    endloop
  endfacet
  facet normal 1 0 0
    outer loop
      vertex 2 -23.8904 0
      vertex 2 -27.9142 2.5
      vertex 2 -27.9142 0
    endloop
  endfacet
  facet normal 1 -0 0
    outer loop
      vertex 2 23.8904 2.5
      vertex 2 27.9142 0
      vertex 2 27.9142 2.5
    endloop
  endfacet
  facet normal 1 0 0
    outer loop
      vertex 2 27.9142 0
      vertex 2 23.8904 2.5
      vertex 2 23.8904 0
    endloop
  endfacet
  facet normal 0 1 -0
    outer loop
      vertex -23.8742 2 0
      vertex -27.8742 2 2.5
      vertex -23.8742 2 2.5
    endloop
  endfacet
  facet normal 0 1 0
    outer loop
      vertex -27.8742 2 2.5
      vertex -23.8742 2 0
      vertex -27.8742 2 0
    endloop
  endfacet
  facet normal 0 1 -0
    outer loop
      vertex 27.8742 2 0
      vertex 23.8742 2 2.5
      vertex 27.8742 2 2.5
    endloop
  endfacet
  facet normal 0 1 0
    outer loop
      vertex 23.8742 2 2.5
      vertex 27.8742 2 0
      vertex 23.8742 2 0
    endloop
  endfacet
  facet normal 0 -1 0
    outer loop
      vertex -27.8742 -2 0
      vertex -23.8742 -2 2.5
      vertex -27.8742 -2 2.5
    endloop
  endfacet
  facet normal 0 -1 -0
    outer loop
      vertex -23.8742 -2 2.5
      vertex -27.8742 -2 0
      vertex -23.8742 -2 0
    endloop
  endfacet
  facet normal 0 -1 0
    outer loop
      vertex 23.8742 -2 0
      vertex 27.8742 -2 2.5
      vertex 23.8742 -2 2.5
    endloop
  endfacet
  facet normal 0 -1 -0
    outer loop
      vertex 27.8742 -2 2.5
      vertex 23.8742 -2 0
      vertex 27.8742 -2 0
    endloop
  endfacet
endsolid OpenSCAD_Model
